<svg height="384pt" viewBox="0 0 384 384" width="384pt" xmlns="http://www.w3.org/2000/svg"><path d="m368 192c0 97.203125-78.796875 176-176 176s-176-78.796875-176-176 78.796875-176 176-176 176 78.796875 176 176zm0 0" fill="#ff7043"/><g fill="#ff8a65"><path d="m288 232c27.519531 0 50.960938 17.359375 59.921875 41.679688-18.800781 35.839843-49.601563 64.398437-86.960937 80.320312-21.839844-10.160156-36.960938-32.320312-36.960938-58 0-35.359375 28.640625-64 64-64zm0 0"/><path d="m256 120c0 17.671875-14.328125 32-32 32s-32-14.328125-32-32 14.328125-32 32-32 32 14.328125 32 32zm0 0"/><path d="m106 38.398438c17.839844 9.363281 30 28 30 49.601562 0 30.960938-25.039062 56-56 56-20.078125 0-37.679688-10.558594-47.519531-26.398438 15.597656-33.441406 41.441406-61.203124 73.519531-79.203124zm0 0"/></g><path d="m192 0c-32.777344 0-65.105469 8.398438-93.511719 24.28125-.046875.023438-.089843.046875-.136719.070312-.0625.03125-.128906.0625-.183593.097657-34.839844 19.550781-63.328125 50.230469-80.183594 86.375-.03125.0625-.046875.121093-.082031.183593-.015625.039063-.03125.082032-.054688.121094-11.832031 25.414063-17.847656 52.625-17.847656 80.871094 0 31.769531 7.902344 63.246094 22.871094 91.023438 4.191406 7.785156 13.890625 10.6875 21.671875 6.503906 7.785156-4.183594 10.6875-13.894532 6.503906-21.671875-12.460937-23.136719-19.046875-49.359375-19.046875-75.855469 0-15.503906 2.207031-30.609375 6.503906-45.175781 11.921875 8.441406 26.28125 13.175781 41.496094 13.175781 39.703125 0 72-32.304688 72-72 0-17.023438-5.976562-33.046875-16.382812-45.695312 17.917968-6.738282 37.039062-10.304688 56.382812-10.304688 88.222656 0 160 71.777344 160 160 0 16.457031-2.433594 32.433594-7.238281 47.769531-14.730469-14.832031-35.042969-23.769531-56.761719-23.769531-44.113281 0-80 35.886719-80 80 0 19.367188 7.089844 37.742188 19.257812 52-11.488281 2.574219-23.25 4-35.257812 4-27.433594 0-54.457031-7.03125-78.167969-20.351562-7.710937-4.328126-17.464843-1.585938-21.792969 6.121093-4.328124 7.703125-1.582031 17.453125 6.121094 21.78125 28.488282 15.992188 60.945313 24.449219 93.839844 24.449219 26.136719 0 51.457031-5.144531 75.230469-15.28125 40.609375-17.304688 74.296875-48.414062 94.859375-87.605469.117187-.234375.222656-.480469.34375-.714843 0-.007813.007812-.015626.007812-.023438 14.09375-27.144531 21.558594-57.679688 21.558594-88.375 0-105.871094-86.136719-192-192-192zm-112 128c-11.007812 0-21.199219-4.464844-28.632812-12.144531 12.824218-23.589844 31.65625-43.886719 54.257812-58.457031 8.984375 7.503906 14.375 18.585937 14.375 30.601562 0 22.054688-17.945312 40-40 40zm181.519531 208.007812c-13.253906-8.777343-21.519531-23.816406-21.519531-40.007812 0-26.472656 21.527344-48 48-48 17.59375 0 33.65625 9.726562 41.953125 24.785156-16.066406 27.375-39.945313 49.4375-68.433594 63.222656zm0 0" fill="#012e52"/><path d="m272 120c0-26.472656-21.527344-48-48-48s-48 21.527344-48 48 21.527344 48 48 48 48-21.527344 48-48zm-64 0c0-8.824219 7.175781-16 16-16s16 7.175781 16 16-7.175781 16-16 16-16-7.175781-16-16zm0 0" fill="#012e52"/></svg>